<?xml version="1.0" encoding="UTF-8" standalone="no"?>
<svg width="200px" height="75px" viewBox="0 0 200 75" version="1.1" xmlns="http://www.w3.org/2000/svg" xmlns:xlink="http://www.w3.org/1999/xlink" xmlns:sketch="http://www.bohemiancoding.com/sketch/ns">
    <!-- Generator: Sketch 3.4.4 (17249) - http://www.bohemiancoding.com/sketch -->
    <title>Giftbit_Wrdmrk_Wht</title>
    <desc>Created with Sketch.</desc>
    <defs></defs>
    <g id="Page-1" stroke="none" stroke-width="1" fill="none" fill-rule="evenodd" sketch:type="MSPage">
        <g id="Giftbit_Wrdmrk_Wht" sketch:type="MSArtboardGroup" fill="#FFFFFF">
            <path d="M196.688201,45.5854952 C193.8222,45.5854952 191.714493,44.7718068 191.714493,39.5022058 L191.714493,27.6343025 L199.998361,27.6343025 L199.998361,18.2758098 L191.714493,18.2758098 L191.714493,6.39929599 L180.258683,7.66072824 L180.255951,15.5597481 L180.255951,15.6232503 C180.255951,17.0730363 179.075898,18.2494403 177.615581,18.2758098 L175.443408,18.2758098 L175.443408,27.6343025 L180.258683,27.6343025 L180.258683,42.0266848 C180.258683,53.9769257 187.719246,54.6426218 193.145854,54.6426218 C196.027698,54.6426218 198.313506,54.314348 199.997815,53.8736002 C199.997815,53.3984105 200,45.8362748 200,45.4590291 C199.011705,45.5456718 197.784121,45.5854952 196.688201,45.5854952 L196.688201,45.5854952 Z M102.543945,39.5022058 L102.543945,27.6343025 L110.827813,27.6343025 L110.827813,18.2758098 L102.543945,18.2758098 L102.543945,6.39929599 L91.0881353,7.66072824 L91.0854037,15.5597481 L91.0854037,15.6232503 C91.0854037,17.0730363 89.9053499,18.2494403 88.4450333,18.2758098 L86.2728601,18.2758098 L86.2728601,27.6343025 L91.0881353,27.6343025 L91.0881353,42.0266848 C91.0881353,53.9769257 98.5486977,54.6426218 103.975306,54.6426218 C106.857151,54.6426218 109.142959,54.314348 110.827267,53.8736002 C110.827267,53.3984105 110.829452,45.8362748 110.829452,45.4590291 C109.841157,45.5456718 108.613573,45.5854952 107.517653,45.5854952 C104.651652,45.5854952 102.543945,44.7718068 102.543945,39.5022058 L102.543945,39.5022058 Z M65.7404701,15.1572092 L65.7404701,15.6356278 C65.7306363,17.0940243 64.5259981,18.2741953 63.0454676,18.2741953 L61.9850581,18.2758098 L61.013699,18.2758098 L61.013699,27.6343025 L65.7404701,27.6343025 L65.7404701,54.0495764 L77.2711256,54.0495764 L77.2711256,27.6343025 L82.3770436,27.6343025 L82.3770436,18.2758098 L77.1908163,18.2758098 L77.1908163,14.4855934 C77.1908163,10.3321232 79.6011855,9.96187342 82.1661636,9.96187342 C83.5237718,9.96187342 83.7903766,10.0124599 84.7923297,10.2282595 L84.7923297,2.24474949 C83.4385457,1.72274041 82.1661636,1.27822546 79.4547714,1.27822546 C73.7260472,1.27822546 65.7404701,2.16994612 65.7404701,15.1572092 L65.7404701,15.1572092 Z M159.189259,54.0495764 L171.630632,54.0495764 L171.630632,18.2758098 L159.189259,18.2758098 L159.189259,54.0495764 Z M165.829247,1 C161.688679,1 158.447355,4.18802247 158.447355,8.19942008 C158.447355,12.1317091 161.688679,15.3956112 165.829247,15.3956112 C170.05231,15.3956112 173.288171,12.1317091 173.288171,8.19942008 C173.288171,4.18802247 170.05231,1 165.829247,1 L165.829247,1 Z M135.333597,45.2922014 C130.056135,45.2922014 126.589726,41.1328115 126.589726,36.1597333 C126.589726,31.2646873 130.056135,27.0321085 135.333597,27.0321085 C140.455359,27.0321085 143.925045,31.2646873 143.925045,36.1597333 C143.925045,41.1328115 140.455359,45.2922014 135.333597,45.2922014 L135.333597,45.2922014 Z M137.740142,17.3830128 C132.996435,17.3830128 128.324296,20.1281348 126.589726,23.3984948 L126.589726,6.39929599 L115.063442,7.66072824 L115.063442,54.0495764 L126.589726,54.0495764 L126.589726,48.999004 C128.324296,52.269364 132.996435,54.9412971 137.740142,54.9412971 C148.215852,54.9412971 155.449144,46.8496182 155.449144,36.1597333 C155.449144,25.4763062 148.215852,17.3830128 137.740142,17.3830128 L137.740142,17.3830128 Z M51.0007239,1 C46.9251677,1 43.7351981,4.18802247 43.7351981,8.19942008 C43.7351981,12.1317091 46.9251677,15.3956112 51.0007239,15.3956112 C55.1593209,15.3956112 58.3498368,12.1317091 58.3498368,8.19942008 C58.3498368,4.18802247 55.1593209,1 51.0007239,1 L51.0007239,1 Z M45.2774629,54.0495764 L56.8048404,54.0495764 L56.8048404,18.2758098 L45.2774629,18.2758098 L45.2774629,54.0495764 Z M20.1144543,45.2922014 C14.9937856,45.2922014 11.5251922,41.1328115 11.5251922,36.1597333 C11.5251922,31.2646873 14.9937856,27.0321085 20.1144543,27.0321085 C25.3913709,27.0321085 28.8572326,31.2646873 28.8572326,36.1597333 C28.8572326,41.1328115 25.3913709,45.2922014 20.1144543,45.2922014 L20.1144543,45.2922014 Z M28.8572326,23.3984948 C26.8216398,19.610431 22.2265321,17.3830128 17.6286928,17.3830128 C7.00493055,17.3830128 0,25.4763062 0,36.1597333 C0,46.8496182 7.30431457,54.4203643 17.7783848,54.4203643 C22.454348,54.4203643 26.8953931,52.1159902 28.8572326,48.8542407 L28.8572326,54.4967821 C28.8572326,60.3567377 25.3913709,62.8037225 19.9653086,62.8037225 C14.9167543,62.8037225 11.2940984,60.4439186 10.3434995,56.7936221 L0.450168677,56.7936221 C0.752830627,65.105944 6.55366923,72.9936627 19.9653086,72.9936627 C33.9057869,72.9936627 40.3867954,66.2931111 40.3867954,53.8246282 L40.3867954,18.2758098 L28.8572326,18.2758098 L28.8572326,23.3984948 Z" id="Giftbit_Wrdmrk" sketch:type="MSShapeGroup"></path>
        </g>
    </g>
</svg>